HIERARCHY
ROOT joint_Root
{
	OFFSET 0.0 0.0 0.0
	CHANNELS 6 Xposition Yposition Zposition Zrotation Xrotation Yrotation 
	JOINT Hips
	{
		OFFSET 4.5925 91.4895 -427.239
		CHANNELS 6 Xposition Yposition Zposition Zrotation Xrotation Yrotation 
		JOINT Spine
		{
			OFFSET 15.7357 0.0 0.0
			CHANNELS 6 Xposition Yposition Zposition Zrotation Xrotation Yrotation 
			JOINT Chest
			{
				OFFSET 8.98455 -0.406207 0.0
				CHANNELS 6 Xposition Yposition Zposition Zrotation Xrotation Yrotation 
				JOINT Neck
				{
					OFFSET 16.3773 0.0 0.0
					CHANNELS 6 Xposition Yposition Zposition Zrotation Xrotation Yrotation 
					JOINT Head
					{
						OFFSET 6.45672 0.0 0.0
						CHANNELS 6 Xposition Yposition Zposition Zrotation Xrotation Yrotation 
						End Site
						{
							OFFSET 0.0 0.0 0.0
						}
					}
				}
				JOINT Shoulder_L
				{
					OFFSET 12.9942 -0.242716 4.98039
					CHANNELS 6 Xposition Yposition Zposition Zrotation Xrotation Yrotation 
					JOINT UpperArm_L
					{
						OFFSET 5.34809 0.0 0.0
						CHANNELS 6 Xposition Yposition Zposition Zrotation Xrotation Yrotation 
						JOINT LowerArm_L
						{
							OFFSET 24.3286 1.87007e-05 0.0
							CHANNELS 6 Xposition Yposition Zposition Zrotation Xrotation Yrotation 
							JOINT Hand_L
							{
								OFFSET 22.2916 0.0 0.0
								CHANNELS 6 Xposition Yposition Zposition Zrotation Xrotation Yrotation 
								End Site
								{
									OFFSET 0.0 0.0 0.0
								}
							}
						}
					}
				}
				JOINT Shoulder_R
				{
					OFFSET 12.9945 -0.242716 -4.98039
					CHANNELS 6 Xposition Yposition Zposition Zrotation Xrotation Yrotation 
					JOINT UpperArm_R
					{
						OFFSET -5.34813 0.0 0.0
						CHANNELS 6 Xposition Yposition Zposition Zrotation Xrotation Yrotation 
						JOINT LowerArm_R
						{
							OFFSET -24.3289 0.000322201 0.0
							CHANNELS 6 Xposition Yposition Zposition Zrotation Xrotation Yrotation 
							JOINT Hand_R
							{
								OFFSET -22.2915 -0.000108084 0.0
								CHANNELS 6 Xposition Yposition Zposition Zrotation Xrotation Yrotation 
								End Site
								{
									OFFSET 0.0 0.0 0.0
								}
							}
						}
					}
				}
			}
		}
		JOINT UpperLeg_L
		{
			OFFSET -2.19248 -6.46944 0.0
			CHANNELS 6 Xposition Yposition Zposition Zrotation Xrotation Yrotation 
			JOINT LowerLeg_L
			{
				OFFSET 39.0811 0.0 -1.23785e-05
				CHANNELS 6 Xposition Yposition Zposition Zrotation Xrotation Yrotation 
				JOINT Foot_L
				{
					OFFSET 40.9854 0.0 -1.26872e-05
					CHANNELS 6 Xposition Yposition Zposition Zrotation Xrotation Yrotation 
					JOINT Toes_L
					{
						OFFSET 11.7543 0.0 0.0
						CHANNELS 6 Xposition Yposition Zposition Zrotation Xrotation Yrotation 
						End Site
						{
							OFFSET 0.0 0.0 0.0
						}
					}
				}
			}
		}
		JOINT UpperLeg_R
		{
			OFFSET -2.19251 6.46944 0.0
			CHANNELS 6 Xposition Yposition Zposition Zrotation Xrotation Yrotation 
			JOINT LowerLeg_R
			{
				OFFSET -39.0811 -0.00228153 -0.0401928
				CHANNELS 6 Xposition Yposition Zposition Zrotation Xrotation Yrotation 
				JOINT Foot_R
				{
					OFFSET -40.9854 0.0 0.0
					CHANNELS 6 Xposition Yposition Zposition Zrotation Xrotation Yrotation 
					JOINT Toes_R
					{
						OFFSET -11.7543 0.0 0.0
						CHANNELS 6 Xposition Yposition Zposition Zrotation Xrotation Yrotation 
						End Site
						{
							OFFSET 0.0 0.0 0.0
						}
					}
				}
			}
		}
	}
}
MOTION
Frames:	4
Frame Time:	0.0333333
0.000000 0.000000 0.000000 0.000000 0.000000 -0.000000 -84.170900 89.668100 176.795000 82.327100 83.753000 10.259100 15.735700 0.000005 -0.000001 85.118900 84.530300 -84.789900 8.984550 -0.406207 -0.000000 3.136850 -0.943116 0.682987 16.377300 -0.000001 -0.000001 -1.027410 -1.998680 -1.468510 6.456720 -0.000001 -0.000000 -8.746910 -0.235210 -8.380860 12.994200 -0.242716 4.980390 -91.137700 4.412190 -75.526900 5.348090 -0.000007 -0.000001 -55.619300 28.497400 -27.081400 24.328600 0.000019 0.000005 9.260550 19.856000 -25.642800 22.291600 -0.000001 0.000005 8.827360 5.249290 1.451530 12.994500 -0.242716 -4.980390 88.824100 9.012930 -82.535000 -5.348130 -0.000001 -0.000004 -64.389400 34.500400 -14.670900 -24.328900 0.000322 -0.000009 1.803970 5.436930 -18.403500 -22.291500 -0.000108 -0.000004 15.857600 5.386820 -2.512710 -2.192480 -6.469440 -0.000000 -178.637000 -8.742420 -2.463210 39.081100 -0.000007 -0.000012 0.016951 -0.024436 34.746200 40.985400 -0.000006 -0.000013 6.071120 6.514010 -74.764500 11.754300 -0.000000 0.000003 -0.782320 -1.016780 -19.503000 -2.192510 6.469440 -0.000001 177.834000 9.322570 163.760000 -39.081100 -0.002282 -0.040193 0.089916 -0.037757 66.482500 -40.985400 0.000008 0.000006 5.883030 -4.204550 -56.883300 -11.754300 -0.000006 -0.000006 -0.017531 -0.153206 -22.828300
0.000000 0.000000 0.000000 0.000000 0.000000 -0.000000 -82.083400 90.241400 176.903000 77.007700 85.648800 14.356900 15.735700 0.000005 -0.000001 80.389000 84.770800 -79.805000 8.984550 -0.406207 -0.000000 2.555970 -1.771200 1.206480 16.377300 -0.000001 -0.000001 -1.506050 -2.282760 -1.397550 6.456720 -0.000001 -0.000000 -8.845280 -0.231346 -7.616140 12.994200 -0.242716 4.980390 -90.940400 3.812880 -76.134700 5.348090 -0.000007 -0.000001 -55.213600 29.790400 -29.866600 24.328600 0.000019 0.000005 9.861970 19.325600 -27.713500 22.291600 -0.000001 0.000005 9.737170 5.247310 1.504150 12.994500 -0.242716 -4.980390 88.764800 8.969150 -82.125600 -5.348130 -0.000001 -0.000004 -66.601800 31.858100 -9.609160 -24.328900 0.000322 -0.000009 1.728450 6.621650 -14.677000 -22.291500 -0.000108 -0.000004 15.213500 5.363730 -1.792630 -2.192480 -6.469440 -0.000000 -178.114000 -8.474270 -1.692760 39.081100 -0.000007 -0.000012 0.010638 -0.016451 32.886200 40.985400 -0.000006 -0.000013 6.014330 8.601820 -72.748300 11.754300 -0.000000 0.000003 -0.420233 -0.534458 -19.392400 -2.192510 6.469440 -0.000001 -179.824000 10.364500 160.738000 -39.081100 -0.002282 -0.040193 0.059888 -0.030981 61.346200 -40.985400 0.000008 0.000006 6.218040 -4.068230 -60.263600 -11.754300 -0.000006 -0.000006 -0.016980 -0.149945 -22.694200
0.000000 0.000000 0.000000 0.000000 0.000000 -0.000000 -79.861700 90.560800 177.103000 66.816900 87.477700 23.620900 15.735700 0.000005 -0.000001 75.666700 84.842800 -74.845000 8.984550 -0.406207 -0.000000 2.248630 -2.591150 1.692930 16.377300 -0.000001 -0.000001 -2.055290 -2.521430 -1.212110 6.456720 -0.000001 -0.000000 -9.126400 -0.109468 -6.826330 12.994200 -0.242716 4.980390 -90.782000 3.294860 -76.641600 5.348090 -0.000007 -0.000001 -54.904900 31.057800 -31.923500 24.328600 0.000019 0.000005 10.532700 18.461900 -30.418500 22.291600 -0.000001 0.000005 10.861400 5.251870 1.384150 12.994500 -0.242716 -4.980390 88.692800 8.934860 -81.641700 -5.348130 -0.000001 -0.000004 -68.085500 28.871400 -4.809990 -24.328900 0.000322 -0.000009 1.554420 7.359180 -11.970900 -22.291500 -0.000108 -0.000004 14.643200 5.343600 -1.185300 -2.192480 -6.469440 -0.000000 -177.675000 -7.898750 -0.898982 39.081100 -0.000007 -0.000012 0.009144 -0.014788 31.727300 40.985400 -0.000006 -0.000013 6.238550 10.233300 -71.187800 11.754300 -0.000000 0.000003 -0.010389 -0.106529 -20.917600 -2.192510 6.469440 -0.000001 -177.771000 11.449600 158.700000 -39.081100 -0.002282 -0.040193 0.042374 -0.028313 54.120200 -40.985400 0.000008 0.000006 6.268000 -2.541770 -62.219800 -11.754300 -0.000006 -0.000006 -0.018022 -0.156074 -22.946200
0.000000 0.000000 0.000000 0.000000 0.000000 -0.000000 -77.540200 90.633300 177.369000 28.029800 89.071900 61.471000 15.735700 0.000005 -0.000001 70.800900 84.889100 -69.790500 8.984550 -0.406207 -0.000000 1.921500 -3.410870 2.076560 16.377300 -0.000001 -0.000001 -2.507970 -2.723730 -0.932913 6.456720 -0.000001 -0.000000 -9.538900 0.088049 -5.988200 12.994200 -0.242716 4.980390 -90.655600 2.839730 -76.995600 5.348090 -0.000007 -0.000001 -54.886200 32.166200 -32.985500 24.328600 0.000019 0.000005 11.425900 17.450100 -33.979200 22.291600 -0.000001 0.000005 11.710300 5.265010 1.033380 12.994500 -0.242716 -4.980390 88.594900 8.902150 -80.992900 -5.348130 -0.000001 -0.000004 -68.882500 26.239500 -0.398125 -24.328900 0.000322 -0.000009 1.363070 7.639800 -10.155000 -22.291500 -0.000108 -0.000004 14.346500 5.329870 -0.781102 -2.192480 -6.469440 -0.000000 -177.490000 -6.651230 -0.262863 39.081100 -0.000007 -0.000012 0.006818 -0.011333 31.029800 40.985400 -0.000006 -0.000013 6.007030 11.078600 -70.111800 11.754300 -0.000000 0.000003 -0.016852 -0.149193 -22.667000 -2.192510 6.469440 -0.000001 -175.985000 13.055800 156.984000 -39.081100 -0.002282 -0.040193 0.030364 -0.026284 45.878400 -40.985400 0.000008 0.000006 5.629220 0.196848 -63.016400 -11.754300 -0.000006 -0.000006 -0.018696 -0.159959 -23.106100
